<svg viewBox="0 0 333 68" fill="none" xmlns="http://www.w3.org/2000/svg">
	<g filter="url(#filter0_b)">
		<path d="M43.546 39.24C44.074 39.24 44.53 39.432 44.914 39.816C45.298 40.2 45.49 40.656 45.49 41.184V52.056C45.49 52.584 45.298 53.04 44.914 53.424C44.53 53.808 44.074 54 43.546 54H2.434C1.906 54 1.45 53.808 1.066 53.424C0.682 53.04 0.49 52.584 0.49 52.056V41.688C0.49 40.728 0.85 39.888 1.57 39.168L21.73 18.216H2.794C2.266 18.216 1.81 18.024 1.426 17.64C1.042 17.256 0.85 16.8 0.85 16.272V5.544C0.85 5.016 1.042 4.56 1.426 4.176C1.81 3.792 2.266 3.6 2.794 3.6H42.61C43.138 3.6 43.594 3.792 43.978 4.176C44.362 4.56 44.554 5.016 44.554 5.544V15.768C44.554 16.728 44.242 17.52 43.618 18.144L24.538 39.24H43.546ZM51.2388 43.272C51.2388 36.792 56.4948 32.64 67.0068 30.816L74.6388 29.592C74.6388 28.152 74.5188 27.192 74.2788 26.712C74.0388 26.184 73.4628 25.92 72.5508 25.92C71.6868 25.92 70.8228 26.304 69.9588 27.072C69.0948 27.84 68.2788 28.224 67.5108 28.224H55.2708C54.2148 28.224 53.6868 27.72 53.6868 26.712C53.6868 25.656 54.0468 24.552 54.7668 23.4C55.5348 22.2 56.6148 21.024 58.0068 19.872C59.4468 18.72 61.4388 17.76 63.9828 16.992C66.5748 16.224 69.4548 15.84 72.6228 15.84C79.0548 15.84 83.8788 17.184 87.0948 19.872C90.3108 22.56 91.9188 26.4 91.9188 31.392V52.056C91.9188 52.584 91.7268 53.04 91.3428 53.424C90.9588 53.808 90.5028 54 89.9748 54H77.3748C76.8468 54 76.3908 53.808 76.0068 53.424C75.6228 53.04 75.4308 52.584 75.4308 52.056V50.04C73.1748 53.16 69.8868 54.72 65.5668 54.72C61.2468 54.72 57.7668 53.64 55.1268 51.48C52.5348 49.272 51.2388 46.536 51.2388 43.272ZM70.1748 44.064C73.2948 44.064 74.8548 42.192 74.8548 38.448L70.6068 39.384C68.4948 39.864 67.4388 40.752 67.4388 42.048C67.4388 42.624 67.6788 43.104 68.1588 43.488C68.6388 43.872 69.3108 44.064 70.1748 44.064ZM140.773 32.472V38.16C140.773 43.536 139.333 47.64 136.453 50.472C133.573 53.304 130.045 54.72 125.869 54.72C121.741 54.72 118.429 53.592 115.933 51.336V65.736C115.933 66.264 115.741 66.72 115.357 67.104C114.973 67.488 114.517 67.68 113.989 67.68H100.669C100.141 67.68 99.685 67.488 99.301 67.104C98.917 66.72 98.725 66.264 98.725 65.736V18.504C98.725 17.976 98.917 17.52 99.301 17.136C99.685 16.752 100.141 16.56 100.669 16.56H112.909C113.437 16.56 113.893 16.752 114.277 17.136C114.661 17.52 114.853 17.976 114.853 18.504V20.664C117.349 17.448 120.877 15.84 125.437 15.84C129.997 15.84 133.693 17.208 136.525 19.944C139.357 22.632 140.773 26.808 140.773 32.472ZM115.933 32.904V38.232C116.077 40.632 117.277 41.832 119.533 41.832C121.933 41.832 123.133 40.44 123.133 37.656V32.904C123.133 30.12 121.933 28.728 119.533 28.728C117.133 28.728 115.933 30.12 115.933 32.904ZM146.673 19.44C146.673 14.544 148.689 10.56 152.721 7.488C156.801 4.416 162.129 2.88 168.705 2.88C175.329 2.88 180.729 4.488 184.905 7.704C189.129 10.92 191.241 14.28 191.241 17.784C191.241 18.216 191.073 18.6 190.737 18.936C190.449 19.224 190.113 19.368 189.729 19.368H175.329C174.225 19.368 173.217 18.96 172.305 18.144C171.393 17.328 170.169 16.92 168.633 16.92C166.329 16.92 165.177 17.592 165.177 18.936C165.177 19.656 165.729 20.256 166.833 20.736C167.985 21.216 170.097 21.648 173.169 22.032C180.321 22.944 185.409 24.624 188.433 27.072C191.505 29.472 193.041 33.144 193.041 38.088C193.041 42.984 190.785 46.992 186.273 50.112C181.809 53.184 175.953 54.72 168.705 54.72C161.457 54.72 155.769 53.232 151.641 50.256C147.513 47.28 145.449 43.656 145.449 39.384C145.449 38.952 145.593 38.592 145.881 38.304C146.217 37.968 146.601 37.8 147.033 37.8H160.713C161.721 37.8 162.825 38.28 164.025 39.24C165.273 40.2 166.977 40.68 169.137 40.68C172.737 40.68 174.537 40.008 174.537 38.664C174.537 37.8 173.889 37.152 172.593 36.72C171.297 36.24 168.849 35.76 165.249 35.28C152.865 33.648 146.673 28.368 146.673 19.44ZM213.612 54H200.724C200.196 54 199.74 53.808 199.356 53.424C198.972 53.04 198.78 52.584 198.78 52.056V4.824C198.78 4.296 198.972 3.84 199.356 3.456C199.74 3.072 200.196 2.88 200.724 2.88H213.612C214.14 2.88 214.596 3.072 214.98 3.456C215.364 3.84 215.556 4.296 215.556 4.824V52.056C215.556 52.584 215.364 53.04 214.98 53.424C214.596 53.808 214.14 54 213.612 54ZM237.588 54H224.7C224.172 54 223.716 53.808 223.332 53.424C222.948 53.04 222.756 52.584 222.756 52.056V18.504C222.756 17.976 222.948 17.52 223.332 17.136C223.716 16.752 224.172 16.56 224.7 16.56H237.588C238.116 16.56 238.572 16.752 238.956 17.136C239.34 17.52 239.532 17.976 239.532 18.504V52.056C239.532 52.584 239.34 53.04 238.956 53.424C238.572 53.808 238.116 54 237.588 54ZM239.172 2.664V11.376C239.172 11.904 238.98 12.36 238.596 12.744C238.212 13.128 237.756 13.32 237.228 13.32H225.06C224.532 13.32 224.076 13.128 223.692 12.744C223.308 12.36 223.116 11.904 223.116 11.376V2.664C223.116 2.136 223.308 1.68 223.692 1.296C224.076 0.911998 224.532 0.719999 225.06 0.719999H237.228C237.756 0.719999 238.212 0.911998 238.596 1.296C238.98 1.68 239.172 2.136 239.172 2.664ZM288.781 32.472V38.16C288.781 43.536 287.341 47.64 284.461 50.472C281.581 53.304 278.053 54.72 273.877 54.72C269.749 54.72 266.437 53.592 263.941 51.336V65.736C263.941 66.264 263.749 66.72 263.365 67.104C262.981 67.488 262.525 67.68 261.997 67.68H248.677C248.149 67.68 247.693 67.488 247.309 67.104C246.925 66.72 246.733 66.264 246.733 65.736V18.504C246.733 17.976 246.925 17.52 247.309 17.136C247.693 16.752 248.149 16.56 248.677 16.56H260.917C261.445 16.56 261.901 16.752 262.285 17.136C262.669 17.52 262.861 17.976 262.861 18.504V20.664C265.357 17.448 268.885 15.84 273.445 15.84C278.005 15.84 281.701 17.208 284.533 19.944C287.365 22.632 288.781 26.808 288.781 32.472ZM263.941 32.904V38.232C264.085 40.632 265.285 41.832 267.541 41.832C269.941 41.832 271.141 40.44 271.141 37.656V32.904C271.141 30.12 269.941 28.728 267.541 28.728C265.141 28.728 263.941 30.12 263.941 32.904ZM314.841 43.632C314.841 43.152 314.721 42.768 314.481 42.48C313.857 41.712 311.553 40.968 307.569 40.248C303.585 39.48 300.345 38.16 297.849 36.288C295.401 34.368 294.177 31.704 294.177 28.296C294.177 24.888 295.809 21.96 299.073 19.512C302.337 17.064 306.729 15.84 312.249 15.84C317.817 15.84 322.377 16.992 325.929 19.296C329.481 21.6 331.257 23.928 331.257 26.28C331.257 26.808 331.089 27.264 330.753 27.648C330.465 28.032 330.105 28.224 329.673 28.224H317.577C316.857 28.224 315.969 27.84 314.913 27.072C313.857 26.304 313.065 25.92 312.537 25.92C311.433 25.92 310.881 26.304 310.881 27.072C310.881 27.552 311.001 27.936 311.241 28.224C311.865 28.944 314.481 29.64 319.089 30.312C323.697 30.984 327.129 32.472 329.385 34.776C331.689 37.032 332.841 39.552 332.841 42.336C332.841 46.224 331.089 49.272 327.585 51.48C324.081 53.688 319.113 54.792 312.681 54.792C309.273 54.792 306.249 54.408 303.609 53.64C300.969 52.872 298.953 51.912 297.561 50.76C294.825 48.504 293.457 46.392 293.457 44.424C293.457 43.896 293.625 43.44 293.961 43.056C294.297 42.672 294.705 42.48 295.185 42.48H307.713C308.385 42.48 309.249 42.864 310.305 43.632C311.409 44.352 312.441 44.712 313.401 44.712C314.361 44.712 314.841 44.352 314.841 43.632Z" fill="black" />
	</g>
	<defs>
		<filter id="filter0_b" x="-3.50999" y="-3.28" width="340.351" height="74.96" filterUnits="userSpaceOnUse" color-interpolation-filters="sRGB">
			<feFlood flood-opacity="0" result="BackgroundImageFix" />
			<feGaussianBlur in="BackgroundImage" stdDeviation="2" />
			<feComposite in2="SourceAlpha" operator="in" result="effect1_backgroundBlur" />
			<feBlend mode="normal" in="SourceGraphic" in2="effect1_backgroundBlur" result="shape" />
		</filter>
	</defs>
</svg>
