<svg width="55" height="55" viewBox="0 0 55 55" fill="none" xmlns="http://www.w3.org/2000/svg">
<path d="M48.125 36.6667V18.3334C48.1242 17.5296 47.912 16.7402 47.5098 16.0444C47.1075 15.3485 46.5294 14.7707 45.8333 14.3688L29.7917 5.20212C29.0949 4.79985 28.3045 4.58807 27.5 4.58807C26.6955 4.58807 25.9051 4.79985 25.2083 5.20212L9.16667 14.3688C8.4706 14.7707 7.89245 15.3485 7.49022 16.0444C7.08799 16.7402 6.87582 17.5296 6.875 18.3334V36.6667C6.87582 37.4705 7.08799 38.2599 7.49022 38.9557C7.89245 39.6516 8.4706 40.2294 9.16667 40.6313L25.2083 49.798C25.9051 50.2002 26.6955 50.412 27.5 50.412C28.3045 50.412 29.0949 50.2002 29.7917 49.798L45.8333 40.6313C46.5294 40.2294 47.1075 39.6516 47.5098 38.9557C47.912 38.2599 48.1242 37.4705 48.125 36.6667Z" stroke="white" stroke-width="4.5422" stroke-linecap="round" stroke-linejoin="round"/>
<path d="M17.1875 9.64795L27.5 15.6063L37.8125 9.64795" stroke="white" stroke-width="4.5422" stroke-linecap="round" stroke-linejoin="round"/>
<path d="M17.1875 45.3521V33.4583L6.875 27.5" stroke="white" stroke-width="4.5422" stroke-linecap="round" stroke-linejoin="round"/>
<path d="M48.125 27.5L37.8125 33.4583V45.3521" stroke="white" stroke-width="4.5422" stroke-linecap="round" stroke-linejoin="round"/>
<path d="M7.49377 15.9501L27.5 27.523L47.5063 15.9501" stroke="white" stroke-width="4.5422" stroke-linecap="round" stroke-linejoin="round"/>
<path d="M27.5 50.6V27.5" stroke="white" stroke-width="4.5422" stroke-linecap="round" stroke-linejoin="round"/>
</svg>
